<svg width="403" height="49" viewBox="0 0 403 49" fill="none" xmlns="http://www.w3.org/2000/svg">
<path d="M48.6914 43.8867V45H41.6602V27.0117C41.6602 25.6836 41.6406 24.4336 41.6016 23.2617C41.6016 22.0508 41.4844 20.9766 41.25 20.0391C41.0156 19.1016 40.625 18.3789 40.0781 17.8711C39.5703 17.3242 38.7695 17.0508 37.6758 17.0508C37.4805 17.0508 37.1289 17.0898 36.6211 17.168C36.1523 17.207 35.5859 17.3242 34.9219 17.5195C34.2578 17.6758 33.5156 17.9492 32.6953 18.3398C31.9141 18.7305 31.1328 19.2383 30.3516 19.8633C30.3516 21.3867 30.3516 22.5977 30.3516 23.4961C30.3906 24.3945 30.4102 25.3711 30.4102 26.4258V45H23.3203V27.0117C23.3203 25.6836 23.3203 24.4336 23.3203 23.2617C23.3203 22.0508 23.2031 20.9766 22.9688 20.0391C22.7344 19.1016 22.3438 18.3789 21.7969 17.8711C21.25 17.3242 20.4492 17.0508 19.3945 17.0508C19.043 17.0508 18.5547 17.1094 17.9297 17.2266C17.3047 17.3047 16.6406 17.4609 15.9375 17.6953C15.2734 17.9297 14.5898 18.2227 13.8867 18.5742C13.2227 18.9258 12.6562 19.3359 12.1875 19.8047V45H5.03906V11.9531H11.4258L12.1875 15.3516C13.1641 14.4531 14.4141 13.6328 15.9375 12.8906C17.5 12.1094 19.1211 11.7188 20.8008 11.7188C22.6758 11.7188 24.2383 12.1289 25.4883 12.9492C26.7383 13.7695 27.9883 14.9805 29.2383 16.582C29.9023 15.8398 30.6445 15.1563 31.4648 14.5312C32.2852 13.9063 33.125 13.3789 33.9844 12.9492C34.8828 12.5195 35.7617 12.1875 36.6211 11.9531C37.4805 11.7188 38.3008 11.6016 39.082 11.6016C40.4102 11.6016 41.6602 11.875 42.832 12.4219C44.0039 12.9297 45.0195 13.6719 45.8789 14.6484C46.7773 15.625 47.4609 16.7969 47.9297 18.1641C48.4375 19.4922 48.6914 20.9375 48.6914 22.5V26.4258V43.8867ZM58.5352 13.125V11.9531H65.6836V29.9414C65.6836 31.3086 65.7422 32.5977 65.8594 33.8086C65.9766 34.9805 66.2305 36.0156 66.6211 36.9141C67.0117 37.8125 67.5977 38.5352 68.3789 39.082C69.1602 39.6289 70.1953 39.9023 71.4844 39.9023C71.875 39.9023 72.4219 39.8633 73.125 39.7852C73.8281 39.668 74.5312 39.4922 75.2344 39.2578C75.9766 39.0234 76.6602 38.7305 77.2852 38.3789C77.9492 38.0273 78.4375 37.6172 78.75 37.1484V36.7383V36.6797V23.5547V23.4961V11.9531H85.8984V45H79.5117L78.75 41.6016C78.2812 42.0312 77.6953 42.4609 76.9922 42.8906C76.2891 43.3203 75.5078 43.7305 74.6484 44.1211C73.8281 44.4727 72.9688 44.7656 72.0703 45C71.2109 45.1953 70.3516 45.293 69.4922 45.293C68.5547 45.293 67.7148 45.1953 66.9727 45C66.2305 44.8438 65.5273 44.5898 64.8633 44.2383C64.2383 43.8477 63.6328 43.418 63.0469 42.9492C62.4609 42.4805 61.875 41.9531 61.2891 41.3672C60.625 40.7031 60.0977 39.9414 59.707 39.082C59.3164 38.1836 59.0234 37.2656 58.8281 36.3281C58.6719 35.3516 58.5742 34.375 58.5352 33.3984C58.5352 32.4219 58.5352 31.4648 58.5352 30.5273V13.0664V13.125ZM102.891 34.9219C102.891 36.25 103.066 37.3047 103.418 38.0859C103.77 38.8281 104.258 39.3945 104.883 39.7852C105.508 40.1367 106.211 40.3711 106.992 40.4883C107.812 40.6055 108.691 40.6641 109.629 40.6641V45C109.121 45.0781 108.594 45.1367 108.047 45.1758C107.617 45.2148 107.109 45.2344 106.523 45.2344C105.938 45.2734 105.352 45.293 104.766 45.293C104.18 45.293 103.594 45.2734 103.008 45.2344C102.422 45.1953 101.895 45.1367 101.426 45.0586C100.098 44.7852 99.0625 44.1992 98.3203 43.3008C97.5781 42.4023 97.0117 41.4062 96.6211 40.3125C96.2305 39.1797 95.9766 38.0859 95.8594 37.0312C95.7812 35.9766 95.7422 35.1562 95.7422 34.5703V33.8672V-0.527344H102.891V34.9219ZM126.562 34.9805C126.562 36.3086 126.738 37.3438 127.09 38.0859C127.441 38.8281 127.93 39.3945 128.555 39.7852C129.219 40.1758 129.941 40.4297 130.723 40.5469C131.543 40.625 132.402 40.6641 133.301 40.6641V45C132.793 45.0781 132.285 45.1367 131.777 45.1758C131.348 45.2148 130.82 45.2344 130.195 45.2344C129.609 45.2734 129.023 45.293 128.438 45.293C127.852 45.293 127.246 45.2734 126.621 45.2344C126.035 45.1953 125.527 45.1367 125.098 45.0586C123.77 44.8242 122.734 44.2578 121.992 43.3594C121.25 42.4219 120.684 41.4062 120.293 40.3125C119.941 39.1797 119.707 38.0859 119.59 37.0312C119.512 35.9766 119.473 35.1562 119.473 34.5703V16.7578H115.137V11.9531H119.473V2.57812H126.562V11.9531H131.836V16.7578H126.562V34.9805ZM148.711 45H141.562V11.9531H148.711V45ZM149.355 1.40625C149.355 2.57812 148.945 3.57422 148.125 4.39453C147.305 5.17578 146.309 5.56641 145.137 5.56641C143.965 5.56641 142.969 5.15625 142.148 4.33594C141.367 3.51562 140.977 2.53906 140.977 1.40625C140.977 0.234375 141.387 -0.761719 142.207 -1.58203C143.027 -2.40234 144.004 -2.8125 145.137 -2.8125C146.309 -2.8125 147.305 -2.40234 148.125 -1.58203C148.945 -0.761719 149.355 0.234375 149.355 1.40625ZM204.141 11.9531L194.824 45.2344H185.684L180.82 26.1328L175.547 45.2344H166.348L157.852 11.9531H165.469L170.918 39.4922L177.07 11.9531H184.746L190.312 39.4922L196.465 11.9531H204.141ZM236.367 34.7461V35.2148C236.367 35.5273 236.387 35.9961 236.426 36.6211C236.465 37.207 236.543 37.8125 236.66 38.4375C236.777 39.0625 236.953 39.6289 237.188 40.1367C237.461 40.6445 237.812 40.9766 238.242 41.1328L236.367 45.0586C235.859 45.0586 235.312 44.9414 234.727 44.707C234.18 44.4727 233.633 44.1406 233.086 43.7109C232.578 43.2812 232.129 42.8125 231.738 42.3047C231.387 41.7578 231.113 41.1719 230.918 40.5469C230.645 41.2109 230.156 41.8359 229.453 42.4219C228.789 42.9688 228.027 43.4766 227.168 43.9453C226.309 44.375 225.371 44.707 224.355 44.9414C223.379 45.1758 222.461 45.293 221.602 45.293C220.273 45.293 218.984 45.1172 217.734 44.7656C216.523 44.4141 215.449 43.8477 214.512 43.0664C213.574 42.2852 212.832 41.25 212.285 39.9609C211.777 38.6719 211.523 37.0898 211.523 35.2148C211.523 33.418 211.895 31.875 212.637 30.5859C213.418 29.2578 214.395 28.1836 215.566 27.3633C216.777 26.5039 218.145 25.8789 219.668 25.4883C221.191 25.0586 222.734 24.8438 224.297 24.8438H229.277C229.277 22.9297 229.18 21.4062 228.984 20.2734C228.789 19.1406 228.457 18.3203 227.988 17.8125C227.52 17.2656 226.934 16.9336 226.23 16.8164C225.566 16.6602 224.766 16.582 223.828 16.582C222.969 16.582 222.148 16.6992 221.367 16.9336C220.625 17.1289 219.922 17.3828 219.258 17.6953C218.633 17.9688 218.066 18.2812 217.559 18.6328C217.09 18.9844 216.738 19.2578 216.504 19.4531L213.867 15.4102C214.258 14.9805 214.844 14.5508 215.625 14.1211C216.406 13.6523 217.305 13.2422 218.32 12.8906C219.336 12.5391 220.43 12.2656 221.602 12.0703C222.812 11.8359 224.062 11.7188 225.352 11.7188C226.523 11.7188 227.656 11.8359 228.75 12.0703C229.883 12.3047 230.898 12.6953 231.797 13.2422C232.734 13.7891 233.535 14.5312 234.199 15.4688C234.902 16.3672 235.391 17.5 235.664 18.8672C235.938 20.2344 236.113 21.6211 236.191 23.0273C236.309 24.3945 236.367 25.7617 236.367 27.1289V34.7461ZM229.336 29.0039H225.586C224.805 29.0039 223.984 29.082 223.125 29.2383C222.266 29.3945 221.465 29.6875 220.723 30.1172C219.98 30.5469 219.355 31.1719 218.848 31.9922C218.379 32.7734 218.145 33.7891 218.145 35.0391C218.145 36.9922 218.574 38.3984 219.434 39.2578C220.332 40.1172 221.621 40.5469 223.301 40.5469C224.473 40.5469 225.586 40.2344 226.641 39.6094C227.734 38.9844 228.633 38.1445 229.336 37.0898V29.0039ZM254.59 34.9219C254.59 36.25 254.766 37.3047 255.117 38.0859C255.469 38.8281 255.957 39.3945 256.582 39.7852C257.207 40.1367 257.91 40.3711 258.691 40.4883C259.512 40.6055 260.391 40.6641 261.328 40.6641V45C260.82 45.0781 260.293 45.1367 259.746 45.1758C259.316 45.2148 258.809 45.2344 258.223 45.2344C257.637 45.2734 257.051 45.293 256.465 45.293C255.879 45.293 255.293 45.2734 254.707 45.2344C254.121 45.1953 253.594 45.1367 253.125 45.0586C251.797 44.7852 250.762 44.1992 250.02 43.3008C249.277 42.4023 248.711 41.4062 248.32 40.3125C247.93 39.1797 247.676 38.0859 247.559 37.0312C247.48 35.9766 247.441 35.1562 247.441 34.5703V33.8672V-0.527344H254.59V34.9219ZM275.859 34.9219C275.859 36.25 276.035 37.3047 276.387 38.0859C276.738 38.8281 277.227 39.3945 277.852 39.7852C278.477 40.1367 279.18 40.3711 279.961 40.4883C280.781 40.6055 281.66 40.6641 282.598 40.6641V45C282.09 45.0781 281.562 45.1367 281.016 45.1758C280.586 45.2148 280.078 45.2344 279.492 45.2344C278.906 45.2734 278.32 45.293 277.734 45.293C277.148 45.293 276.562 45.2734 275.977 45.2344C275.391 45.1953 274.863 45.1367 274.395 45.0586C273.066 44.7852 272.031 44.1992 271.289 43.3008C270.547 42.4023 269.98 41.4062 269.59 40.3125C269.199 39.1797 268.945 38.0859 268.828 37.0312C268.75 35.9766 268.711 35.1562 268.711 34.5703V33.8672V-0.527344H275.859V34.9219ZM303.926 11.6016C306.582 11.6016 308.926 12.1484 310.957 13.2422C312.988 14.2969 314.648 15.7227 315.938 17.5195C317.266 19.2773 318.203 21.3281 318.75 23.6719C319.336 25.9766 319.453 28.3789 319.102 30.8789H296.133C296.133 32.1289 296.367 33.2812 296.836 34.3359C297.305 35.3906 297.93 36.3086 298.711 37.0898C299.531 37.832 300.488 38.418 301.582 38.8477C302.715 39.2773 303.926 39.4922 305.215 39.4922C305.645 39.4922 306.172 39.4531 306.797 39.375C307.461 39.2578 308.145 39.082 308.848 38.8477C309.59 38.5742 310.312 38.2422 311.016 37.8516C311.758 37.4609 312.402 36.9922 312.949 36.4453L315.527 40.3711C314.238 41.9727 312.734 43.1836 311.016 44.0039C309.297 44.8242 307.109 45.2344 304.453 45.2344C302.305 45.2344 300.293 44.8047 298.418 43.9453C296.543 43.0469 294.941 41.8359 293.613 40.3125C292.285 38.7891 291.23 37.0117 290.449 34.9805C289.668 32.9492 289.277 30.7617 289.277 28.418C289.277 26.1133 289.668 23.9453 290.449 21.9141C291.23 19.8438 292.266 18.0469 293.555 16.5234C294.883 15 296.445 13.8086 298.242 12.9492C300.039 12.0508 301.934 11.6016 303.926 11.6016ZM312.539 25.7227C312.539 24.668 312.344 23.6328 311.953 22.6172C311.562 21.6016 311.016 20.6836 310.312 19.8633C309.648 19.043 308.828 18.3984 307.852 17.9297C306.875 17.4219 305.82 17.1484 304.688 17.1094C303.477 17.1094 302.363 17.3438 301.348 17.8125C300.332 18.2812 299.453 18.9062 298.711 19.6875C297.969 20.4688 297.383 21.4062 296.953 22.5C296.562 23.5547 296.367 24.6289 296.367 25.7227H312.539ZM338.438 34.9805C338.438 36.3086 338.613 37.3438 338.965 38.0859C339.316 38.8281 339.805 39.3945 340.43 39.7852C341.094 40.1758 341.816 40.4297 342.598 40.5469C343.418 40.625 344.277 40.6641 345.176 40.6641V45C344.668 45.0781 344.16 45.1367 343.652 45.1758C343.223 45.2148 342.695 45.2344 342.07 45.2344C341.484 45.2734 340.898 45.293 340.312 45.293C339.727 45.293 339.121 45.2734 338.496 45.2344C337.91 45.1953 337.402 45.1367 336.973 45.0586C335.645 44.8242 334.609 44.2578 333.867 43.3594C333.125 42.4219 332.559 41.4062 332.168 40.3125C331.816 39.1797 331.582 38.0859 331.465 37.0312C331.387 35.9766 331.348 35.1562 331.348 34.5703V16.7578H327.012V11.9531H331.348V2.57812H338.438V11.9531H343.711V16.7578H338.438V34.9805Z" transform="translate(57 3)" fill="black"/>
<circle opacity="0.5" cx="15" cy="15" r="15" transform="translate(10 17)" fill="#0000FF"/>
<circle opacity="0.5" cx="15" cy="15" r="15" transform="translate(0 17)" fill="#FFFF00"/>
<circle opacity="0.5" cx="15" cy="15" r="15" transform="translate(5 12)" fill="#FF0000"/>
</svg>
